HIERARCHY
ROOT Model
{
	OFFSET 0 0 0
	CHANNELS 6 Xposition Yposition Zposition Zrotation Xrotation Yrotation
	JOINT Model1
	{
		OFFSET 0 -2.25479 2.99384
		CHANNELS 3 Zrotation Xrotation Yrotation
		JOINT Model2
		{
			OFFSET 12.111 0 0
			CHANNELS 3 Zrotation Xrotation Yrotation
			JOINT Model3
			{
				OFFSET 11.5502 0 0
				CHANNELS 3 Zrotation Xrotation Yrotation
				JOINT Model4
				{
					OFFSET 11.781 0 0
					CHANNELS 3 Zrotation Xrotation Yrotation
					JOINT Model5
					{
						OFFSET 20.0601 0 0
						CHANNELS 3 Zrotation Xrotation Yrotation
						JOINT Model6
						{
							OFFSET 11.1962 0 0
							CHANNELS 3 Zrotation Xrotation Yrotation
							End Site
							{
								OFFSET 0 0 0
							}
						}
					}
					JOINT Model7
					{
						OFFSET 10.8223 0.417534 3.51114
						CHANNELS 3 Zrotation Xrotation Yrotation
						JOINT Model8
						{
							OFFSET -6.07943 0 0
							CHANNELS 3 Zrotation Xrotation Yrotation
							JOINT Model9
							{
								OFFSET -0.277416 10.39 -0.051239
								CHANNELS 3 Zrotation Xrotation Yrotation
								JOINT Model10
								{
									OFFSET -3.4391 -0.282043 1.86678
									CHANNELS 3 Zrotation Xrotation Yrotation
									JOINT Model11
									{
										OFFSET 13.0269 0 0
										CHANNELS 3 Zrotation Xrotation Yrotation
										JOINT Model12
										{
											OFFSET 10.8866 0 0
											CHANNELS 3 Zrotation Xrotation Yrotation
											JOINT Model13
											{
												OFFSET 16.7317 0 0
												CHANNELS 3 Zrotation Xrotation Yrotation
												JOINT Model14
												{
													OFFSET 11.8292 0 0
													CHANNELS 3 Zrotation Xrotation Yrotation
													JOINT Model15
													{
														OFFSET 4.82751 -3.73566 -0.836517
														CHANNELS 3 Zrotation Xrotation Yrotation
														JOINT Model16
														{
															OFFSET 3.75311 -0.0582886 -0.0186462
															CHANNELS 3 Zrotation Xrotation Yrotation
															JOINT Model17
															{
																OFFSET 2.88688 0.0192337 0.014801
																CHANNELS 3 Zrotation Xrotation Yrotation
																End Site
																{
																	OFFSET 0 0 0
																}
															}
														}
													}
													JOINT Model18
													{
														OFFSET 9.72197 -3.06458 0.23877
														CHANNELS 3 Zrotation Xrotation Yrotation
														JOINT Model19
														{
															OFFSET 4.61131 0 0
															CHANNELS 3 Zrotation Xrotation Yrotation
															JOINT Model20
															{
																OFFSET 2.8969 -7.62939e-006 0
																CHANNELS 3 Zrotation Xrotation Yrotation
																End Site
																{
																	OFFSET 0 0 0
																}
															}
														}
													}
													JOINT Model21
													{
														OFFSET 9.54431 -0.745064 0.588943
														CHANNELS 3 Zrotation Xrotation Yrotation
														JOINT Model22
														{
															OFFSET 5.33978 0 0
															CHANNELS 3 Zrotation Xrotation Yrotation
															JOINT Model23
															{
																OFFSET 3.03619 7.62939e-006 0
																CHANNELS 3 Zrotation Xrotation Yrotation
																End Site
																{
																	OFFSET 0 0 0
																}
															}
														}
													}
													JOINT Model24
													{
														OFFSET 9.47759 1.51286 0.485123
														CHANNELS 3 Zrotation Xrotation Yrotation
														JOINT Model25
														{
															OFFSET 4.96136 7.62939e-006 0
															CHANNELS 3 Zrotation Xrotation Yrotation
															JOINT Model26
															{
																OFFSET 2.51966 0 0
																CHANNELS 3 Zrotation Xrotation Yrotation
																End Site
																{
																	OFFSET 0 0 0
																}
															}
														}
													}
													JOINT Model27
													{
														OFFSET 9.34247 3.34117 -0.239273
														CHANNELS 3 Zrotation Xrotation Yrotation
														JOINT Model28
														{
															OFFSET 3.2826 2.28882e-005 0
															CHANNELS 3 Zrotation Xrotation Yrotation
															JOINT Model29
															{
																OFFSET 2.1292 0 0
																CHANNELS 3 Zrotation Xrotation Yrotation
																End Site
																{
																	OFFSET 0 0 0
																}
															}
														}
													}
												}
											}
										}
									}
								}
							}
						}
					}
					JOINT Model30
					{
						OFFSET 10.8223 0.4179 -3.51106
						CHANNELS 3 Zrotation Xrotation Yrotation
						JOINT Model31
						{
							OFFSET 6.07943 0 0
							CHANNELS 3 Zrotation Xrotation Yrotation
							JOINT Model32
							{
								OFFSET 0.277416 -10.39 0.051239
								CHANNELS 3 Zrotation Xrotation Yrotation
								JOINT Model33
								{
									OFFSET 3.4391 0.282043 -1.86678
									CHANNELS 3 Zrotation Xrotation Yrotation
									JOINT Model34
									{
										OFFSET -13.0269 0 0
										CHANNELS 3 Zrotation Xrotation Yrotation
										JOINT Model35
										{
											OFFSET -10.8866 0 0
											CHANNELS 3 Zrotation Xrotation Yrotation
											JOINT Model36
											{
												OFFSET -16.7317 0 0
												CHANNELS 3 Zrotation Xrotation Yrotation
												JOINT Model37
												{
													OFFSET -11.8292 0 0
													CHANNELS 3 Zrotation Xrotation Yrotation
													JOINT Model38
													{
														OFFSET -4.82751 3.73566 0.836517
														CHANNELS 3 Zrotation Xrotation Yrotation
														JOINT Model39
														{
															OFFSET -3.75311 0.0582886 0.0186462
															CHANNELS 3 Zrotation Xrotation Yrotation
															JOINT Model40
															{
																OFFSET -2.88688 -0.0192337 -0.014801
																CHANNELS 3 Zrotation Xrotation Yrotation
																End Site
																{
																	OFFSET 0 0 0
																}
															}
														}
													}
													JOINT Model41
													{
														OFFSET -9.72197 3.06459 -0.23877
														CHANNELS 3 Zrotation Xrotation Yrotation
														JOINT Model42
														{
															OFFSET -4.6113 0 0
															CHANNELS 3 Zrotation Xrotation Yrotation
															JOINT Model43
															{
																OFFSET -2.8969 0 0
																CHANNELS 3 Zrotation Xrotation Yrotation
																End Site
																{
																	OFFSET 0 0 0
																}
															}
														}
													}
													JOINT Model44
													{
														OFFSET -9.5443 0.745064 -0.588943
														CHANNELS 3 Zrotation Xrotation Yrotation
														JOINT Model45
														{
															OFFSET -5.33978 0 0
															CHANNELS 3 Zrotation Xrotation Yrotation
															JOINT Model46
															{
																OFFSET -3.03619 -1.52588e-005 0
																CHANNELS 3 Zrotation Xrotation Yrotation
																End Site
																{
																	OFFSET 0 0 0
																}
															}
														}
													}
													JOINT Model47
													{
														OFFSET -9.47759 -1.51286 -0.485123
														CHANNELS 3 Zrotation Xrotation Yrotation
														JOINT Model48
														{
															OFFSET -4.96136 -1.52588e-005 0
															CHANNELS 3 Zrotation Xrotation Yrotation
															JOINT Model49
															{
																OFFSET -2.51966 0 0
																CHANNELS 3 Zrotation Xrotation Yrotation
																End Site
																{
																	OFFSET 0 0 0
																}
															}
														}
													}
													JOINT Model50
													{
														OFFSET -9.34246 -3.34118 0.239273
														CHANNELS 3 Zrotation Xrotation Yrotation
														JOINT Model51
														{
															OFFSET -3.2826 -1.90735e-005 0
															CHANNELS 3 Zrotation Xrotation Yrotation
															JOINT Model52
															{
																OFFSET -2.1292 0 0
																CHANNELS 3 Zrotation Xrotation Yrotation
																End Site
																{
																	OFFSET 0 0 0
																}
															}
														}
													}
												}
											}
										}
									}
								}
							}
						}
					}
				}
			}
		}
	}
	JOINT Model53
	{
		OFFSET 4.38026 -2.14632 -1.11516
		CHANNELS 3 Zrotation Xrotation Yrotation
		JOINT Model54
		{
			OFFSET 0 0 4.95
			CHANNELS 3 Zrotation Xrotation Yrotation
			JOINT Model55
			{
				OFFSET 18.5642 0 0
				CHANNELS 3 Zrotation Xrotation Yrotation
				JOINT Model56
				{
					OFFSET 21.2884 0 1.52588e-005
					CHANNELS 3 Zrotation Xrotation Yrotation
					JOINT Model57
					{
						OFFSET 30.261 0 0
						CHANNELS 3 Zrotation Xrotation Yrotation
						JOINT Model58
						{
							OFFSET 11.7259 0 0
							CHANNELS 3 Zrotation Xrotation Yrotation
							JOINT Model59
							{
								OFFSET 10.682 0 0
								CHANNELS 3 Zrotation Xrotation Yrotation
								End Site
								{
									OFFSET 0 0 0
								}
							}
						}
					}
				}
			}
		}
	}
	JOINT Model60
	{
		OFFSET -4.38026 -2.14632 -1.11516
		CHANNELS 3 Zrotation Xrotation Yrotation
		JOINT Model61
		{
			OFFSET 0 0 -4.95
			CHANNELS 3 Zrotation Xrotation Yrotation
			JOINT Model62
			{
				OFFSET -18.5642 0 0
				CHANNELS 3 Zrotation Xrotation Yrotation
				JOINT Model63
				{
					OFFSET -21.2884 0 -1.52588e-005
					CHANNELS 3 Zrotation Xrotation Yrotation
					JOINT Model64
					{
						OFFSET -30.261 0 0
						CHANNELS 3 Zrotation Xrotation Yrotation
						JOINT Model65
						{
							OFFSET -11.7259 0 0
							CHANNELS 3 Zrotation Xrotation Yrotation
							JOINT Model66
							{
								OFFSET -10.682 0 0
								CHANNELS 3 Zrotation Xrotation Yrotation
								End Site
								{
									OFFSET 0 0 0
								}
							}
						}
					}
				}
			}
		}
	}
}
MOTION
Frames: 4
Frame Time: 0.033333
-55.1891 150.328 4.48048 92.2291 -1.20186 108.18 -180 4.29621e-031 -90 4.60055 0.583732 2.64148 9.17011 1.37624 5.22807 9.17011 1.37667 5.228 -26.8527 -5.48582 14.9649 17.8222 1.31669 -4.58134 120.092 75.5343 58.4939 3.74351 -4.66548 -1.62 -167.277 84.4999 48.8109 -157.736 14.363 -14.4976 -3.76432e-005 58.419 5.66409e-005 -37.5662 19.6973 0.393228 3.8156e-007 28.9717 8.58444e-007 -4.47352 0.856608 -21.6742 -72.0648 39.0385 39.3397 33.3638 2.10362 14.835 0.588947 0.308273 6.35287 -99.6409 81.413 100.35 -0.0181409 2.77657e-005 -0.117315 -0.124139 0.00241113 -0.799296 -79.8382 79.5773 80.5374 -0.000225775 -0.00022086 2.22579e-005 -0.000956224 0.000122979 -2.72346e-005 -66.7416 80.4058 67.2171 -0.000437128 1.59474e-005 -2.72612e-005 -0.000136599 -0.000109288 -5.45607e-005 -6.42159 81.2158 8.01779 -0.00021856 1.66542e-005 0.000212207 0.000901592 -0.000185146 -0.000218475 -59.9282 75.5373 58.5147 -3.84448 -6.39046 -1.25935 -167.277 84.4999 48.8109 -174.005 -14.2092 7.02724 7.04659e-006 -0.190207 2.91284e-005 3.08872 62.7409 -3.85776 180 85.7582 -180 -14.204 2.53892 -20.0342 -72.0648 39.0385 39.3397 33.3638 2.10361 14.835 0.588946 0.308272 6.35287 -99.6409 81.413 100.35 -0.0181409 2.94434e-005 -0.117315 -0.124139 0.00241037 -0.799296 -79.8382 79.5773 80.5374 -0.000260651 -0.000219113 2.35088e-005 -0.000956233 0.000122256 -2.74042e-005 -66.7416 80.4058 67.2171 -0.000437135 1.42753e-005 -2.73818e-005 -0.000136607 -0.000110104 -5.47242e-005 -6.42159 81.2158 8.01779 -0.000218597 1.78722e-005 0.000212223 0.000901541 -0.000193557 -0.000218666 0.000811311 0.56661 89.91 -45.5393 12.7466 -14.4474 1.12213e-006 22.0184 -2.49137e-008 81.4025 -4.32265 -0.00822136 4.12756e-007 -6.60504 3.2049e-007 -83.4697 -2.72237 -0.314061 -35.4945 0.00066331 -3.57525e-005 -180 -0.566579 -90.09 -21.1802 -19.9756 -11.5213 4.74559e-006 -23.9779 -5.8427e-007 71.3199 18.7488 2.98831 1.36219e-006 28.0418 -2.357e-006 -95.1577 19.6823 -7.03757 -35.4947 -8.46173e-008 -9.98829e-010 
-53.7769 149.685 4.09149 93.2544 1.54605 109.23 -180 4.29621e-031 -90 4.63137 0.175359 3.04297 9.24689 0.595152 6.06207 9.24689 0.595584 6.062 -26.3081 -6.02483 16.0763 18.9636 1.02113 -6.33311 120.092 75.5343 58.4939 6.07919 -3.83883 -1.70025 -167.277 84.4999 48.8109 -159.662 13.5247 -18.058 -3.84992e-005 58.8667 5.73718e-005 -36.2037 17.9946 0.377195 4.24059e-007 26.4308 8.38682e-007 -1.70791 0.324223 -21.5064 -72.0648 39.0385 39.3397 33.3638 2.10362 14.835 0.588947 0.308273 6.35287 -99.6409 81.413 100.35 -0.0181409 2.77657e-005 -0.117315 -0.124139 0.00241113 -0.799296 -79.8382 79.5773 80.5374 -0.000225775 -0.00022086 2.22579e-005 -0.000956224 0.000122979 -2.72346e-005 -66.7416 80.4058 67.2171 -0.000437128 1.59474e-005 -2.72612e-005 -0.000136599 -0.000109288 -5.45607e-005 -6.42159 81.2158 8.01779 -0.00021856 1.66542e-005 0.000212207 0.000901592 -0.000185146 -0.000218475 -59.9282 75.5373 58.5147 -3.43036 -6.66403 -1.40213 -167.277 84.4999 48.8109 -175.95 -16.2982 0.43432 7.05631e-006 -0.209333 2.91284e-005 1.44357 61.7219 -3.55306 180 87.3231 -180 -10.987 1.39948 -14.4373 -72.0648 39.0385 39.3397 33.3638 2.10361 14.835 0.588946 0.308272 6.35287 -99.6409 81.413 100.35 -0.0181409 2.94434e-005 -0.117315 -0.124139 0.00241037 -0.799296 -79.8382 79.5773 80.5374 -0.000260651 -0.000219113 2.35088e-005 -0.000956233 0.000122256 -2.74042e-005 -66.7416 80.4058 67.2171 -0.000437135 1.42753e-005 -2.73818e-005 -0.000136607 -0.000110104 -5.47242e-005 -6.42159 81.2158 8.01779 -0.000218597 1.78722e-005 0.000212223 0.000901541 -0.000193557 -0.000218666 0.000811311 0.56661 89.91 -44.9074 13.0975 -17.9271 1.12277e-006 23.3678 -2.51602e-008 77.172 -2.22608 -0.00816216 3.95133e-007 -3.45863 3.18943e-007 -78.8578 -9.7702 2.82623 -35.4968 -0.00596412 0.000322075 -180 -0.566579 -90.09 -18.2435 -21.3871 -11.4147 4.72618e-006 -25.6932 -5.92423e-007 71.8904 18.5701 1.6891 1.3486e-006 27.7494 -2.35064e-006 -93.5813 20.1063 -7.45156 -35.4947 -4.96755e-008 5.71232e-008 
-51.9675 149.237 3.15149 95.086 3.5547 108.73 -180 4.29621e-031 -90 4.80288 -0.151926 3.19403 9.60697 -0.0362103 6.3896 9.60697 -0.0357794 6.38953 -25.6032 -6.17998 15.9917 20.4928 0.528932 -7.37117 120.092 75.5343 58.4939 8.80763 -2.14396 -1.66645 -167.277 84.4999 48.8109 -162.182 13.2825 -20.7686 -3.91335e-005 59.1911 5.79157e-005 -34.8615 16.1947 0.361601 4.66997e-007 23.7447 8.20471e-007 0.688118 -0.127948 -21.1541 -72.0648 39.0385 39.3397 33.3638 2.10362 14.835 0.588947 0.308273 6.35287 -99.6409 81.413 100.35 -0.0181409 2.77657e-005 -0.117315 -0.124139 0.00241113 -0.799296 -79.8382 79.5773 80.5374 -0.000225775 -0.00022086 2.22579e-005 -0.000956224 0.000122979 -2.72346e-005 -66.7416 80.4058 67.2171 -0.000437128 1.59474e-005 -2.72612e-005 -0.000136599 -0.000109288 -5.45607e-005 -6.42159 81.2158 8.01779 -0.00021856 1.66542e-005 0.000212207 0.000901592 -0.000185146 -0.000218475 -59.9282 75.5373 58.5147 -2.23426 -6.61711 -1.5176 -167.277 84.4999 48.8109 -179.25 -17.9761 -5.86853 7.08002e-006 -0.255971 2.91285e-005 1.2609 60.1371 -3.33451 -179.999 89.7052 179.999 -7.0393 0.622039 -10.0949 -72.0648 39.0385 39.3397 33.3638 2.10361 14.835 0.588946 0.308272 6.35287 -99.6409 81.413 100.35 -0.0181409 2.94434e-005 -0.117315 -0.124139 0.00241037 -0.799296 -79.8382 79.5773 80.5374 -0.000260651 -0.000219113 2.35088e-005 -0.000956233 0.000122256 -2.74042e-005 -66.7416 80.4058 67.2171 -0.000437135 1.42753e-005 -2.73818e-005 -0.000136607 -0.000110104 -5.47242e-005 -6.42159 81.2158 8.01779 -0.000218597 1.78722e-005 0.000212223 0.000901541 -0.000193557 -0.000218666 0.000811311 0.56661 89.91 -43.326 11.7311 -19.6066 1.12216e-006 22.0871 -2.49258e-008 77.2582 1.03704 -0.00810854 3.67911e-007 1.43608 3.18462e-007 -79.9486 -12.5229 3.84732 -35.4968 -0.00596425 0.000322204 -180 -0.566579 -90.09 -16.8277 -21.1646 -12.0535 4.73669e-006 -24.7702 -5.87943e-007 72.6332 17.8087 -0.0973008 1.29569e-006 26.596 -2.32647e-006 -90.107 12.7822 -5.49642 -35.463 -0.0797054 0.00787891 
-50.2149 149.625 1.7365 97.3761 3.59994 106.899 -180 4.29621e-031 -90 4.96356 -0.212477 3.03777 9.93126 -0.161696 6.08248 9.93126 -0.161265 6.08241 -24.5878 -5.86637 14.5341 22.0603 -0.0439624 -7.12382 120.092 75.5343 58.4939 11.1035 -0.496669 -1.6477 -167.277 84.4999 48.8109 -165.149 13.1546 -23.4009 -3.9244e-005 59.247 5.80107e-005 -33.6068 14.039 0.346723 5.16208e-007 20.5246 8.01922e-007 2.59522 -0.474016 -20.6852 -72.0648 39.0385 39.3397 33.3638 2.10362 14.835 0.588947 0.308273 6.35287 -99.6409 81.413 100.35 -0.0181409 2.77657e-005 -0.117315 -0.124139 0.00241113 -0.799296 -79.8382 79.5773 80.5374 -0.000225775 -0.00022086 2.22579e-005 -0.000956224 0.000122979 -2.72346e-005 -66.7416 80.4058 67.2171 -0.000437128 1.59474e-005 -2.72612e-005 -0.000136599 -0.000109288 -5.45607e-005 -6.42159 81.2158 8.01779 -0.00021856 1.66542e-005 0.000212207 0.000901592 -0.000185146 -0.000218475 -59.9282 75.5373 58.5147 -0.0445235 -5.94083 -1.54525 -167.277 84.4999 48.8109 177.919 -18.9122 -10.5187 7.09561e-006 -0.286642 2.91286e-005 0.992425 57.5292 -3.00662 -7.81054e-005 86.3757 7.03742e-005 -3.69959 0.216348 -6.6888 -72.0648 39.0385 39.3397 33.3638 2.10361 14.835 0.588946 0.308272 6.35287 -99.6409 81.413 100.35 -0.0181409 2.94434e-005 -0.117315 -0.124139 0.00241037 -0.799296 -79.8382 79.5773 80.5374 -0.000260651 -0.000219113 2.35088e-005 -0.000956233 0.000122256 -2.74042e-005 -66.7416 80.4058 67.2171 -0.000437135 1.42753e-005 -2.73818e-005 -0.000136607 -0.000110104 -5.47242e-005 -6.42159 81.2158 8.01779 -0.000218597 1.78722e-005 0.000212223 0.000901541 -0.000193557 -0.000218666 0.000811311 0.56661 89.91 -40.1028 8.8312 -20.7673 1.12072e-006 18.9527 -2.44204e-008 77.0974 2.66594 -0.00805999 3.54302e-007 3.87951 3.19094e-007 -82.4839 -10.15 2.52635 -35.4945 0.000663166 -3.56944e-005 -180 -0.566579 -90.09 -15.9199 -16.9822 -10.021 4.795e-006 -19.403 -5.65995e-007 71.0888 14.1922 -0.019468 1.05987e-006 21.1723 -2.23088e-006 -88.9583 1.67036 -2.30446 -35.0365 -0.409922 -0.165519 
